<svg width="120" height="120" viewBox="0 0 120 120" fill="none" xmlns="http://www.w3.org/2000/svg">
<path fill-rule="evenodd" clip-rule="evenodd" d="M59.6747 15C74.2017 15 87.9367 21.6211 96.9797 32.988C106.027 44.355 109.394 59.226 106.132 73.383C102.866 87.539 93.323 99.434 80.214 105.692C79.7492 105.907 79.1945 105.735 78.9367 105.29L68.6047 87.3917C68.4602 87.1417 68.4329 86.8448 68.5266 86.5714C68.6204 86.2979 68.8274 86.0792 69.0969 85.9698C76.3703 83.0323 81.8549 76.8682 83.9289 69.3058C86.0031 61.7394 84.4289 53.6378 79.6711 47.3998C74.9172 41.1615 67.5191 37.5014 59.6751 37.5014C51.8311 37.5014 44.4331 41.1616 39.6791 47.3998C34.9213 53.6381 33.3471 61.7398 35.4213 69.3058C37.4955 76.8683 42.9799 83.0328 50.2533 85.9698C50.5228 86.0792 50.7299 86.2979 50.8236 86.5714C50.9174 86.8448 50.89 87.1417 50.7455 87.3917L40.4135 105.29C40.1557 105.735 39.601 105.907 39.1362 105.692C26.0272 99.4342 16.4842 87.54 13.2182 73.383C9.9565 59.227 13.3237 44.356 22.3705 32.988C31.4135 21.621 45.1467 15 59.6747 15ZM63.2763 54.051L54.0146 70.051C53.7451 70.6135 53.9521 71.2893 54.4951 71.6018C55.0381 71.9104 55.7256 71.7502 56.0732 71.2307L65.3349 55.2307C65.6396 54.6643 65.4404 53.9573 64.8818 53.6369C64.3271 53.3127 63.6123 53.4924 63.2763 54.0393L63.2763 54.051ZM47.0263 54.7502L39.9677 61.8205H39.9638C39.7412 62.0432 39.6123 62.3479 39.6123 62.6643C39.6123 62.9846 39.7412 63.2893 39.9638 63.5119L47.0224 70.5705H47.0263C47.249 70.7971 47.5537 70.9221 47.8701 70.9221C48.1865 70.9221 48.4912 70.7971 48.7138 70.5705C48.9404 70.3479 49.0654 70.0471 49.0654 69.7307C49.0654 69.4143 48.9404 69.1135 48.7138 68.8909L42.495 62.6603L48.6747 56.4416C48.9013 56.2189 49.0263 55.9142 49.0263 55.5939C49.0263 55.2775 48.9013 54.9728 48.6747 54.7501C48.206 54.2931 47.4559 54.2931 46.9833 54.7501L47.0263 54.7502ZM70.6743 56.4416L76.8931 62.6604L70.6743 68.8909C70.4478 69.1136 70.3228 69.4144 70.3228 69.7308C70.3228 70.0472 70.4478 70.348 70.6743 70.5706C70.897 70.7972 71.2017 70.9222 71.5181 70.9222C71.8384 70.9222 72.1392 70.7972 72.3657 70.5706L79.4243 63.512C79.6509 63.2893 79.7759 62.9847 79.7759 62.6643C79.7759 62.3479 79.6509 62.0432 79.4243 61.8206L72.3657 54.7503C71.8931 54.2933 71.143 54.2933 70.6743 54.7503C70.4478 54.9729 70.3228 55.2776 70.3228 55.594C70.3228 55.9143 70.4478 56.219 70.6743 56.4416Z" fill="#101010"/>
</svg>
