<svg width="120" height="120" viewBox="0 0 120 120" fill="none" xmlns="http://www.w3.org/2000/svg">
<path d="M59.5 18C82.4198 18 101 36.5802 101 59.5C101 82.4198 82.4198 101 59.5 101C36.5802 101 18 82.4198 18 59.5C18 36.5802 36.5802 18 59.5 18ZM57.9932 39.6357V43.7256C51.8821 44.2427 47.8859 48.0503 47.8857 53.4092C47.8857 58.2511 50.7537 61.3538 56.3008 62.623L57.9932 62.999V74.7041C54.4206 74.328 52.2104 72.3541 52.1162 69.3457H47.416C47.6982 74.8456 51.7881 78.371 57.9932 78.7471V82.79H61.001V78.7002C67.2061 78.1361 71.2021 74.3753 71.2021 68.7812C71.2021 64.0805 68.4758 61.1189 62.835 59.8496L61.001 59.4268V47.7686C64.0564 48.1916 65.89 50.1186 66.0781 53.127H70.6377C70.3085 47.6742 66.6889 44.1958 61.001 43.6787V39.6357H57.9932ZM61.8945 63.9395C65.1381 64.6916 66.6894 66.4308 66.6895 69.1572C66.6895 72.1188 64.5266 74.1403 61.001 74.6104V63.751L61.8945 63.9395ZM57.9932 58.7217L57.2402 58.5332C53.95 57.734 52.3985 55.9949 52.3984 53.2686C52.3984 50.26 54.5145 48.2386 57.9932 47.7686V58.7217Z" fill="#101010"/>
</svg>
