<svg width="420" height="444" viewBox="0 0 420 444" fill="none" xmlns="http://www.w3.org/2000/svg">
<rect y="48" width="420" height="72" rx="12" fill="#EAEAEA"/>
<path d="M188.2 93.264C186.984 93.264 185.928 93.008 185.032 92.496C184.152 91.984 183.464 91.264 182.968 90.336C182.472 89.392 182.224 88.288 182.224 87.024V76.2H185.104V87.024C185.104 88.128 185.384 89.016 185.944 89.688C186.504 90.344 187.256 90.672 188.2 90.672C189.144 90.672 189.896 90.344 190.456 89.688C191.016 89.016 191.296 88.128 191.296 87.024V76.2H194.176V87.024C194.176 88.288 193.928 89.392 193.432 90.336C192.936 91.264 192.24 91.984 191.344 92.496C190.464 93.008 189.416 93.264 188.2 93.264ZM202.711 93.264C201.527 93.264 200.407 93.064 199.351 92.664C198.295 92.248 197.247 91.624 196.207 90.792L197.719 88.632C198.743 89.448 199.639 90.024 200.407 90.36C201.175 90.696 201.967 90.864 202.783 90.864C203.423 90.864 203.983 90.76 204.463 90.552C204.959 90.328 205.343 90.024 205.615 89.64C205.887 89.256 206.023 88.824 206.023 88.344C206.023 87.752 205.847 87.288 205.495 86.952C205.159 86.616 204.711 86.352 204.151 86.16C203.607 85.952 202.999 85.776 202.327 85.632C201.671 85.488 201.007 85.32 200.335 85.128C199.663 84.936 199.047 84.68 198.487 84.36C197.943 84.024 197.503 83.576 197.167 83.016C196.831 82.44 196.663 81.704 196.663 80.808C196.663 79.832 196.895 78.984 197.359 78.264C197.839 77.528 198.511 76.96 199.375 76.56C200.255 76.144 201.279 75.936 202.447 75.936C203.567 75.936 204.639 76.112 205.663 76.464C206.703 76.8 207.695 77.328 208.639 78.048L207.175 80.184C206.359 79.56 205.551 79.096 204.751 78.792C203.967 78.472 203.175 78.312 202.375 78.312C201.479 78.312 200.759 78.528 200.215 78.96C199.671 79.376 199.399 79.904 199.399 80.544C199.399 81.12 199.567 81.576 199.903 81.912C200.239 82.248 200.687 82.512 201.247 82.704C201.823 82.896 202.447 83.064 203.119 83.208C203.791 83.352 204.463 83.528 205.135 83.736C205.807 83.928 206.423 84.192 206.983 84.528C207.543 84.864 207.991 85.32 208.327 85.896C208.679 86.472 208.855 87.216 208.855 88.128C208.855 89.12 208.599 90.008 208.087 90.792C207.575 91.56 206.855 92.168 205.927 92.616C205.015 93.048 203.943 93.264 202.711 93.264ZM214.365 90.552H216.165C217.013 90.552 217.757 90.312 218.397 89.832C219.037 89.352 219.541 88.672 219.909 87.792C220.277 86.912 220.461 85.848 220.461 84.6C220.461 83.352 220.277 82.288 219.909 81.408C219.541 80.528 219.037 79.848 218.397 79.368C217.757 78.888 217.013 78.648 216.165 78.648H214.365V90.552ZM211.485 93V76.2H216.429C217.773 76.2 218.965 76.544 220.005 77.232C221.045 77.92 221.861 78.896 222.453 80.16C223.061 81.408 223.365 82.888 223.365 84.6C223.365 86.296 223.061 87.776 222.453 89.04C221.861 90.304 221.045 91.28 220.005 91.968C218.965 92.656 217.773 93 216.429 93H211.485ZM231.564 93.264C230.38 93.264 229.292 92.928 228.3 92.256C227.308 91.584 226.516 90.608 225.924 89.328C225.332 88.032 225.036 86.456 225.036 84.6C225.036 82.744 225.332 81.176 225.924 79.896C226.516 78.6 227.308 77.616 228.3 76.944C229.292 76.272 230.38 75.936 231.564 75.936C232.556 75.936 233.46 76.152 234.276 76.584C235.108 77 235.82 77.616 236.412 78.432C237.02 79.232 237.46 80.208 237.732 81.36L235.14 82.104C234.9 80.936 234.452 80.048 233.796 79.44C233.156 78.832 232.428 78.528 231.612 78.528C230.924 78.528 230.3 78.752 229.74 79.2C229.196 79.648 228.756 80.328 228.42 81.24C228.1 82.136 227.94 83.256 227.94 84.6C227.94 85.944 228.1 87.072 228.42 87.984C228.756 88.88 229.196 89.552 229.74 90C230.3 90.448 230.924 90.672 231.612 90.672C232.428 90.672 233.156 90.368 233.796 89.76C234.452 89.152 234.9 88.264 235.14 87.096L237.732 87.84C237.46 88.976 237.02 89.952 236.412 90.768C235.82 91.584 235.108 92.208 234.276 92.64C233.46 93.056 232.556 93.264 231.564 93.264Z" fill="black"/>
<rect y="196" width="420" height="72" rx="12" fill="#EAEAEA"/>
<path d="M139.2 241V224.2H142.416L145.2 230.944L147.984 224.2H151.2V241H148.68V228.088L145.176 236.416L141.672 228.088V241H139.2ZM152.607 241L157.887 224.2H161.295L166.575 241H163.647L162.423 236.944H156.639L155.439 241H152.607ZM157.287 234.712H161.799L159.543 227.248L157.287 234.712ZM174.101 241.264C172.917 241.264 171.797 241.064 170.741 240.664C169.685 240.248 168.637 239.624 167.597 238.792L169.109 236.632C170.133 237.448 171.029 238.024 171.797 238.36C172.565 238.696 173.357 238.864 174.173 238.864C174.813 238.864 175.373 238.76 175.853 238.552C176.349 238.328 176.733 238.024 177.005 237.64C177.277 237.256 177.413 236.824 177.413 236.344C177.413 235.752 177.237 235.288 176.885 234.952C176.549 234.616 176.101 234.352 175.541 234.16C174.997 233.952 174.389 233.776 173.717 233.632C173.061 233.488 172.397 233.32 171.725 233.128C171.053 232.936 170.437 232.68 169.877 232.36C169.333 232.024 168.893 231.576 168.557 231.016C168.221 230.44 168.053 229.704 168.053 228.808C168.053 227.832 168.285 226.984 168.749 226.264C169.229 225.528 169.901 224.96 170.765 224.56C171.645 224.144 172.669 223.936 173.837 223.936C174.957 223.936 176.029 224.112 177.053 224.464C178.093 224.8 179.085 225.328 180.029 226.048L178.565 228.184C177.749 227.56 176.941 227.096 176.141 226.792C175.357 226.472 174.565 226.312 173.765 226.312C172.869 226.312 172.149 226.528 171.605 226.96C171.061 227.376 170.789 227.904 170.789 228.544C170.789 229.12 170.957 229.576 171.293 229.912C171.629 230.248 172.077 230.512 172.637 230.704C173.213 230.896 173.837 231.064 174.509 231.208C175.181 231.352 175.853 231.528 176.525 231.736C177.197 231.928 177.813 232.192 178.373 232.528C178.933 232.864 179.381 233.32 179.717 233.896C180.069 234.472 180.245 235.216 180.245 236.128C180.245 237.12 179.989 238.008 179.477 238.792C178.965 239.56 178.245 240.168 177.317 240.616C176.405 241.048 175.333 241.264 174.101 241.264ZM186.932 241V226.648H181.724V224.2H195.02V226.648H189.812V241H186.932ZM197.651 241V224.2H208.643V226.648H200.531V231.328H205.787V233.728H200.531V238.552H208.739V241H197.651ZM211.921 241V224.2H217.633C218.753 224.2 219.729 224.416 220.561 224.848C221.409 225.264 222.065 225.856 222.529 226.624C223.009 227.376 223.249 228.256 223.249 229.264C223.249 230.368 222.961 231.32 222.385 232.12C221.809 232.92 221.025 233.504 220.033 233.872L223.705 241H220.609L217.273 234.28H214.801V241H211.921ZM214.801 231.976H217.393C218.289 231.976 219.001 231.736 219.529 231.256C220.073 230.76 220.345 230.112 220.345 229.312C220.345 228.496 220.073 227.848 219.529 227.368C219.001 226.872 218.289 226.624 217.393 226.624H214.801V231.976ZM231.736 241.264C230.552 241.264 229.464 240.928 228.472 240.256C227.48 239.584 226.688 238.608 226.096 237.328C225.504 236.032 225.208 234.456 225.208 232.6C225.208 230.744 225.504 229.176 226.096 227.896C226.688 226.6 227.48 225.616 228.472 224.944C229.464 224.272 230.552 223.936 231.736 223.936C232.728 223.936 233.632 224.152 234.448 224.584C235.28 225 235.992 225.616 236.584 226.432C237.192 227.232 237.632 228.208 237.904 229.36L235.312 230.104C235.072 228.936 234.624 228.048 233.968 227.44C233.328 226.832 232.6 226.528 231.784 226.528C231.096 226.528 230.472 226.752 229.912 227.2C229.368 227.648 228.928 228.328 228.592 229.24C228.272 230.136 228.112 231.256 228.112 232.6C228.112 233.944 228.272 235.072 228.592 235.984C228.928 236.88 229.368 237.552 229.912 238C230.472 238.448 231.096 238.672 231.784 238.672C232.6 238.672 233.328 238.368 233.968 237.76C234.624 237.152 235.072 236.264 235.312 235.096L237.904 235.84C237.632 236.976 237.192 237.952 236.584 238.768C235.992 239.584 235.28 240.208 234.448 240.64C233.632 241.056 232.728 241.264 231.736 241.264ZM238.95 241L244.23 224.2H247.638L252.918 241H249.99L248.766 236.944H242.982L241.782 241H238.95ZM243.63 234.712H248.142L245.886 227.248L243.63 234.712ZM255.093 241V224.2H260.805C261.925 224.2 262.901 224.416 263.733 224.848C264.581 225.264 265.237 225.856 265.701 226.624C266.181 227.376 266.421 228.256 266.421 229.264C266.421 230.368 266.133 231.32 265.557 232.12C264.981 232.92 264.197 233.504 263.205 233.872L266.877 241H263.781L260.445 234.28H257.973V241H255.093ZM257.973 231.976H260.565C261.461 231.976 262.173 231.736 262.701 231.256C263.245 230.76 263.517 230.112 263.517 229.312C263.517 228.496 263.245 227.848 262.701 227.368C262.173 226.872 261.461 226.624 260.565 226.624H257.973V231.976ZM272.1 238.552H273.9C274.748 238.552 275.492 238.312 276.132 237.832C276.772 237.352 277.276 236.672 277.644 235.792C278.012 234.912 278.196 233.848 278.196 232.6C278.196 231.352 278.012 230.288 277.644 229.408C277.276 228.528 276.772 227.848 276.132 227.368C275.492 226.888 274.748 226.648 273.9 226.648H272.1V238.552ZM269.22 241V224.2H274.164C275.508 224.2 276.7 224.544 277.74 225.232C278.78 225.92 279.596 226.896 280.188 228.16C280.796 229.408 281.1 230.888 281.1 232.6C281.1 234.296 280.796 235.776 280.188 237.04C279.596 238.304 278.78 239.28 277.74 239.968C276.7 240.656 275.508 241 274.164 241H269.22Z" fill="black"/>
<rect y="284" width="420" height="72" rx="12" fill="#EAEAEA"/>
<path d="M186.472 329L181.216 312.2H184.144L188.224 325.976L192.352 312.224H195.184L189.904 329H186.472ZM196.927 329V326.552H201.151V314.648H196.927V312.2H208.255V314.648H204.031V326.552H208.255V329H196.927ZM217.101 329.264C215.917 329.264 214.797 329.064 213.741 328.664C212.685 328.248 211.637 327.624 210.597 326.792L212.109 324.632C213.133 325.448 214.029 326.024 214.797 326.36C215.565 326.696 216.357 326.864 217.173 326.864C217.813 326.864 218.373 326.76 218.853 326.552C219.349 326.328 219.733 326.024 220.005 325.64C220.277 325.256 220.413 324.824 220.413 324.344C220.413 323.752 220.237 323.288 219.885 322.952C219.549 322.616 219.101 322.352 218.541 322.16C217.997 321.952 217.389 321.776 216.717 321.632C216.061 321.488 215.397 321.32 214.725 321.128C214.053 320.936 213.437 320.68 212.877 320.36C212.333 320.024 211.893 319.576 211.557 319.016C211.221 318.44 211.053 317.704 211.053 316.808C211.053 315.832 211.285 314.984 211.749 314.264C212.229 313.528 212.901 312.96 213.765 312.56C214.645 312.144 215.669 311.936 216.837 311.936C217.957 311.936 219.029 312.112 220.053 312.464C221.093 312.8 222.085 313.328 223.029 314.048L221.565 316.184C220.749 315.56 219.941 315.096 219.141 314.792C218.357 314.472 217.565 314.312 216.765 314.312C215.869 314.312 215.149 314.528 214.605 314.96C214.061 315.376 213.789 315.904 213.789 316.544C213.789 317.12 213.957 317.576 214.293 317.912C214.629 318.248 215.077 318.512 215.637 318.704C216.213 318.896 216.837 319.064 217.509 319.208C218.181 319.352 218.853 319.528 219.525 319.736C220.197 319.928 220.813 320.192 221.373 320.528C221.933 320.864 222.381 321.32 222.717 321.896C223.069 322.472 223.245 323.216 223.245 324.128C223.245 325.12 222.989 326.008 222.477 326.792C221.965 327.56 221.245 328.168 220.317 328.616C219.405 329.048 218.333 329.264 217.101 329.264ZM224.388 329L229.668 312.2H233.076L238.356 329H235.428L234.204 324.944H228.42L227.22 329H224.388ZM229.068 322.712H233.58L231.324 315.248L229.068 322.712Z" fill="black"/>
<rect y="372" width="420" height="72" rx="12" fill="#EAEAEA"/>
<path d="M195.2 417.264C193.984 417.264 192.928 417.008 192.032 416.496C191.152 415.984 190.464 415.264 189.968 414.336C189.472 413.392 189.224 412.288 189.224 411.024V400.2H192.104V411.024C192.104 412.128 192.384 413.016 192.944 413.688C193.504 414.344 194.256 414.672 195.2 414.672C196.144 414.672 196.896 414.344 197.456 413.688C198.016 413.016 198.296 412.128 198.296 411.024V400.2H201.176V411.024C201.176 412.288 200.928 413.392 200.432 414.336C199.936 415.264 199.24 415.984 198.344 416.496C197.464 417.008 196.416 417.264 195.2 417.264ZM204.263 417V400.2H210.167C211.303 400.2 212.287 400.424 213.119 400.872C213.967 401.304 214.623 401.912 215.087 402.696C215.551 403.48 215.783 404.392 215.783 405.432C215.783 406.424 215.551 407.312 215.087 408.096C214.623 408.88 213.967 409.496 213.119 409.944C212.287 410.376 211.303 410.592 210.167 410.592H207.143V417H204.263ZM207.143 408.216H209.711C210.735 408.216 211.519 407.96 212.063 407.448C212.607 406.936 212.879 406.256 212.879 405.408C212.879 404.576 212.607 403.904 212.063 403.392C211.519 402.88 210.735 402.624 209.711 402.624H207.143V408.216ZM218.317 417V414.552H222.541V402.648H218.317V400.2H229.645V402.648H225.421V414.552H229.645V417H218.317Z" fill="black"/>
<path d="M152.634 25.264C151.45 25.264 150.362 24.928 149.37 24.256C148.378 23.584 147.586 22.608 146.994 21.328C146.402 20.032 146.106 18.456 146.106 16.6C146.106 14.744 146.402 13.176 146.994 11.896C147.586 10.6 148.378 9.616 149.37 8.944C150.362 8.272 151.45 7.936 152.634 7.936C153.626 7.936 154.53 8.152 155.346 8.584C156.178 9 156.89 9.616 157.482 10.432C158.09 11.232 158.53 12.208 158.802 13.36L156.21 14.104C155.97 12.936 155.522 12.048 154.866 11.44C154.226 10.832 153.498 10.528 152.682 10.528C151.994 10.528 151.37 10.752 150.81 11.2C150.266 11.648 149.826 12.328 149.49 13.24C149.17 14.136 149.01 15.256 149.01 16.6C149.01 17.944 149.17 19.072 149.49 19.984C149.826 20.88 150.266 21.552 150.81 22C151.37 22.448 151.994 22.672 152.682 22.672C153.498 22.672 154.226 22.368 154.866 21.76C155.522 21.152 155.97 20.264 156.21 19.096L158.802 19.84C158.53 20.976 158.09 21.952 157.482 22.768C156.89 23.584 156.178 24.208 155.346 24.64C154.53 25.056 153.626 25.264 152.634 25.264ZM166.833 25.264C165.617 25.264 164.561 25.008 163.665 24.496C162.785 23.984 162.097 23.264 161.601 22.336C161.105 21.392 160.857 20.288 160.857 19.024V8.2H163.737V19.024C163.737 20.128 164.017 21.016 164.577 21.688C165.137 22.344 165.889 22.672 166.833 22.672C167.777 22.672 168.529 22.344 169.089 21.688C169.649 21.016 169.929 20.128 169.929 19.024V8.2H172.809V19.024C172.809 20.288 172.561 21.392 172.065 22.336C171.569 23.264 170.873 23.984 169.977 24.496C169.097 25.008 168.049 25.264 166.833 25.264ZM175.991 25V8.2H181.703C182.823 8.2 183.799 8.416 184.631 8.848C185.479 9.264 186.135 9.856 186.599 10.624C187.079 11.376 187.319 12.256 187.319 13.264C187.319 14.368 187.031 15.32 186.455 16.12C185.879 16.92 185.095 17.504 184.103 17.872L187.775 25H184.679L181.343 18.28H178.871V25H175.991ZM178.871 15.976H181.463C182.359 15.976 183.071 15.736 183.599 15.256C184.143 14.76 184.415 14.112 184.415 13.312C184.415 12.496 184.143 11.848 183.599 11.368C183.071 10.872 182.359 10.624 181.463 10.624H178.871V15.976ZM190.382 25V8.2H196.094C197.214 8.2 198.19 8.416 199.022 8.848C199.87 9.264 200.526 9.856 200.99 10.624C201.47 11.376 201.71 12.256 201.71 13.264C201.71 14.368 201.422 15.32 200.846 16.12C200.27 16.92 199.486 17.504 198.494 17.872L202.166 25H199.07L195.734 18.28H193.262V25H190.382ZM193.262 15.976H195.854C196.75 15.976 197.462 15.736 197.99 15.256C198.534 14.76 198.806 14.112 198.806 13.312C198.806 12.496 198.534 11.848 197.99 11.368C197.462 10.872 196.75 10.624 195.854 10.624H193.262V15.976ZM204.893 25V8.2H215.885V10.648H207.773V15.328H213.029V17.728H207.773V22.552H215.981V25H204.893ZM218.707 25V8.2H221.611L227.683 19.96L227.635 8.2H230.083V25H227.419L221.107 12.856L221.155 25H218.707ZM237.346 25V10.648H232.138V8.2H245.434V10.648H240.226V25H237.346ZM248.137 25V8.2H251.017V22.552H259.201V25H248.137ZM266.127 25V18.112L260.607 8.2H263.703L267.639 15.472L271.599 8.2H274.527L269.007 18.136V25H266.127Z" fill="#5A5A5A"/>
<path d="M138.744 173.264C137.56 173.264 136.472 172.928 135.48 172.256C134.488 171.584 133.696 170.608 133.104 169.328C132.512 168.032 132.216 166.456 132.216 164.6C132.216 162.744 132.512 161.176 133.104 159.896C133.696 158.6 134.488 157.616 135.48 156.944C136.472 156.272 137.56 155.936 138.744 155.936C139.736 155.936 140.64 156.152 141.456 156.584C142.288 157 143 157.616 143.592 158.432C144.2 159.232 144.64 160.208 144.912 161.36L142.32 162.104C142.08 160.936 141.632 160.048 140.976 159.44C140.336 158.832 139.608 158.528 138.792 158.528C138.104 158.528 137.48 158.752 136.92 159.2C136.376 159.648 135.936 160.328 135.6 161.24C135.28 162.136 135.12 163.256 135.12 164.6C135.12 165.944 135.28 167.072 135.6 167.984C135.936 168.88 136.376 169.552 136.92 170C137.48 170.448 138.104 170.672 138.792 170.672C139.608 170.672 140.336 170.368 140.976 169.76C141.632 169.152 142.08 168.264 142.32 167.096L144.912 167.84C144.64 168.976 144.2 169.952 143.592 170.768C143 171.584 142.288 172.208 141.456 172.64C140.64 173.056 139.736 173.264 138.744 173.264ZM152.942 173.264C151.758 173.264 150.67 172.928 149.678 172.256C148.686 171.584 147.894 170.608 147.302 169.328C146.71 168.032 146.414 166.456 146.414 164.6C146.414 162.744 146.71 161.176 147.302 159.896C147.894 158.6 148.686 157.616 149.678 156.944C150.67 156.272 151.758 155.936 152.942 155.936C154.126 155.936 155.206 156.272 156.182 156.944C157.174 157.616 157.966 158.6 158.558 159.896C159.166 161.176 159.47 162.744 159.47 164.6C159.47 166.456 159.166 168.032 158.558 169.328C157.966 170.608 157.174 171.584 156.182 172.256C155.206 172.928 154.126 173.264 152.942 173.264ZM152.942 170.672C153.614 170.672 154.222 170.448 154.766 170C155.326 169.536 155.766 168.856 156.086 167.96C156.406 167.048 156.566 165.928 156.566 164.6C156.566 163.272 156.406 162.16 156.086 161.264C155.766 160.352 155.326 159.672 154.766 159.224C154.222 158.76 153.614 158.528 152.942 158.528C152.27 158.528 151.654 158.76 151.094 159.224C150.55 159.672 150.118 160.352 149.798 161.264C149.478 162.16 149.318 163.272 149.318 164.6C149.318 165.928 149.478 167.048 149.798 167.96C150.118 168.856 150.55 169.536 151.094 170C151.654 170.448 152.27 170.672 152.942 170.672ZM161.333 173V156.2H164.549L167.333 162.944L170.117 156.2H173.333V173H170.813V160.088L167.309 168.416L163.805 160.088V173H161.333ZM176.059 173V170.552H180.283V158.648H176.059V156.2H187.387V158.648H183.163V170.552H187.387V173H176.059ZM190.426 173V156.2H193.33L199.402 167.96L199.354 156.2H201.802V173H199.138L192.826 160.856L192.874 173H190.426ZM210.745 173.264C209.529 173.264 208.417 172.928 207.409 172.256C206.417 171.584 205.617 170.608 205.009 169.328C204.417 168.032 204.121 166.456 204.121 164.6C204.121 162.744 204.417 161.176 205.009 159.896C205.617 158.6 206.409 157.616 207.385 156.944C208.377 156.272 209.465 155.936 210.649 155.936C212.057 155.936 213.289 156.368 214.345 157.232C215.417 158.08 216.201 159.272 216.697 160.808L214.153 161.648C213.865 160.624 213.409 159.848 212.785 159.32C212.177 158.792 211.489 158.528 210.721 158.528C210.033 158.528 209.409 158.752 208.849 159.2C208.289 159.648 207.841 160.328 207.505 161.24C207.185 162.136 207.025 163.256 207.025 164.6C207.025 165.944 207.185 167.072 207.505 167.984C207.841 168.88 208.297 169.552 208.873 170C209.449 170.448 210.097 170.672 210.817 170.672C211.457 170.672 212.025 170.488 212.521 170.12C213.017 169.752 213.417 169.24 213.721 168.584C214.041 167.912 214.233 167.144 214.297 166.28H210.961V163.832H217.009V164.768C217.009 166.56 216.745 168.088 216.217 169.352C215.705 170.616 214.977 171.584 214.033 172.256C213.089 172.928 211.993 173.264 210.745 173.264ZM239.406 173.264C238.222 173.264 237.102 173.064 236.046 172.664C234.99 172.248 233.942 171.624 232.902 170.792L234.414 168.632C235.438 169.448 236.334 170.032 237.102 170.384C237.87 170.72 238.662 170.888 239.478 170.888C240.118 170.888 240.678 170.776 241.158 170.552C241.654 170.328 242.038 170.024 242.31 169.64C242.582 169.256 242.718 168.824 242.718 168.344C242.718 167.752 242.542 167.288 242.19 166.952C241.854 166.616 241.406 166.352 240.846 166.16C240.302 165.952 239.694 165.776 239.022 165.632C238.366 165.488 237.702 165.32 237.03 165.128C236.358 164.936 235.742 164.68 235.182 164.36C234.638 164.024 234.198 163.576 233.862 163.016C233.526 162.44 233.358 161.704 233.358 160.808C233.358 159.832 233.59 158.984 234.054 158.264C234.534 157.528 235.206 156.96 236.07 156.56C236.95 156.144 237.974 155.936 239.142 155.936C240.262 155.936 241.334 156.112 242.358 156.464C243.398 156.8 244.39 157.328 245.334 158.048L243.87 160.184C243.054 159.56 242.246 159.096 241.446 158.792C240.662 158.472 239.87 158.312 239.07 158.312C238.174 158.312 237.454 158.528 236.91 158.96C236.366 159.376 236.094 159.904 236.094 160.544C236.094 161.12 236.262 161.576 236.598 161.912C236.934 162.248 237.382 162.512 237.942 162.704C238.518 162.896 239.142 163.064 239.814 163.208C240.486 163.352 241.158 163.528 241.83 163.736C242.502 163.928 243.118 164.192 243.678 164.528C244.238 164.864 244.686 165.32 245.022 165.896C245.374 166.472 245.55 167.216 245.55 168.128C245.55 169.12 245.294 170.008 244.782 170.792C244.27 171.56 243.55 172.168 242.622 172.616C241.71 173.048 240.638 173.264 239.406 173.264ZM253.677 173.264C252.493 173.264 251.405 172.928 250.413 172.256C249.421 171.584 248.629 170.608 248.037 169.328C247.445 168.032 247.149 166.456 247.149 164.6C247.149 162.744 247.445 161.176 248.037 159.896C248.629 158.6 249.421 157.616 250.413 156.944C251.405 156.272 252.493 155.936 253.677 155.936C254.861 155.936 255.941 156.272 256.917 156.944C257.909 157.616 258.701 158.6 259.293 159.896C259.901 161.176 260.205 162.744 260.205 164.6C260.205 166.456 259.901 168.032 259.293 169.328C258.701 170.608 257.909 171.584 256.917 172.256C255.941 172.928 254.861 173.264 253.677 173.264ZM253.677 170.672C254.349 170.672 254.957 170.448 255.501 170C256.061 169.536 256.501 168.856 256.821 167.96C257.141 167.048 257.301 165.928 257.301 164.6C257.301 163.272 257.141 162.16 256.821 161.264C256.501 160.352 256.061 159.672 255.501 159.224C254.957 158.76 254.349 158.528 253.677 158.528C253.005 158.528 252.389 158.76 251.829 159.224C251.285 159.672 250.853 160.352 250.533 161.264C250.213 162.16 250.053 163.272 250.053 164.6C250.053 165.928 250.213 167.048 250.533 167.96C250.853 168.856 251.285 169.536 251.829 170C252.389 170.448 253.005 170.672 253.677 170.672ZM268.067 173.264C266.883 173.264 265.795 172.928 264.803 172.256C263.811 171.584 263.019 170.608 262.427 169.328C261.835 168.032 261.539 166.456 261.539 164.6C261.539 162.744 261.835 161.176 262.427 159.896C263.019 158.6 263.811 157.616 264.803 156.944C265.795 156.272 266.883 155.936 268.067 155.936C269.251 155.936 270.331 156.272 271.307 156.944C272.299 157.616 273.091 158.6 273.683 159.896C274.291 161.176 274.595 162.744 274.595 164.6C274.595 166.456 274.291 168.032 273.683 169.328C273.091 170.608 272.299 171.584 271.307 172.256C270.331 172.928 269.251 173.264 268.067 173.264ZM268.067 170.672C268.739 170.672 269.347 170.448 269.891 170C270.451 169.536 270.891 168.856 271.211 167.96C271.531 167.048 271.691 165.928 271.691 164.6C271.691 163.272 271.531 162.16 271.211 161.264C270.891 160.352 270.451 159.672 269.891 159.224C269.347 158.76 268.739 158.528 268.067 158.528C267.395 158.528 266.779 158.76 266.219 159.224C265.675 159.672 265.243 160.352 264.923 161.264C264.603 162.16 264.443 163.272 264.443 164.6C264.443 165.928 264.603 167.048 264.923 167.96C265.243 168.856 265.675 169.536 266.219 170C266.779 170.448 267.395 170.672 268.067 170.672ZM276.77 173V156.2H279.674L285.746 167.96L285.698 156.2H288.146V173H285.482L279.17 160.856L279.218 173H276.77Z" fill="#5A5A5A"/>
</svg>
